# xmcd
#
# Track frame offsets:
#	225
#	17067
#	36052
#	52502
#	70695
#	91662
#	109185
#	127420
#	145380
#	166840
#	191722
#	215020
#	232625
#	253950
#	270297
#	288137
#	305430
#
# Disc length: 4338 seconds
#
# Revision: 1
# Processed by: cddbd v1.5.2PL0 Copyright (c) Steve Scherf et al.
# Submitted via: EasyCDDAExtractor 12.0.0.1
#
DISCID=e710ef11
DTITLE=Various Artist - Kuschel Rock 12
DYEAR=1900
DGENRE=
TTITLE0=K-Ci and Jojo - All My Life
TTITLE1=Celine Dion Feat. Bee Gees - Immortality
TTITLE2=Gil Feat. The Moffatta - If You Only Knew
TTITLE3=Brandy and Monica - The Boy Is Mine
TTITLE4=Savage Garden - Truly, Madly, Deeply
TTITLE5=Mariah Carey - My All
TTITLE6=Modern Talking - I Will Follow You
TTITLE7=Bravo Allstars - Let The Music Heal Your Soul
TTITLE8=Chris Rea - Sweet Summer Day
TTITLE9=Massive Attack - Teardrop
TTITLE10=Ricky Martin - Vuelve
TTITLE11=Sasha Feat. Young Deenay - I'm Still Waitin'
TTITLE12=Espen Lind - Lucky For You
TTITLE13=Usher - My Way
TTITLE14=Sweet Connection - True
TTITLE15=Chris De Bourgh - So Beautiful
TTITLE16=Robbie Williams - Angels
EXTD=
EXTT0=
EXTT1=
EXTT2=
EXTT3=
EXTT4=
EXTT5=
EXTT6=
EXTT7=
EXTT8=
EXTT9=
EXTT10=
EXTT11=
EXTT12=
EXTT13=
EXTT14=
EXTT15=
EXTT16=
PLAYORDER=
